<?xml version="1.0" standalone="no"?><!DOCTYPE svg PUBLIC "-//W3C//DTD SVG 1.1//EN" "http://www.w3.org/Graphics/SVG/1.1/DTD/svg11.dtd"><svg t="1709002502962" class="icon" viewBox="0 0 1024 1024" version="1.1" xmlns="http://www.w3.org/2000/svg" p-id="2451" xmlns:xlink="http://www.w3.org/1999/xlink" width="200" height="200"><path d="M152.593 241.799h714.071c15.464 0 28-12.536 28-28s-12.536-28-28-28H152.593c-15.464 0-28 12.536-28 28s12.536 28 28 28zM866.664 495.799H152.593c-15.464 0-28 12.536-28 28s12.536 28 28 28h714.071c15.464 0 28-12.536 28-28s-12.536-28-28-28zM866.664 805.799H152.593c-15.464 0-28 12.536-28 28s12.536 28 28 28h714.071c15.464 0 28-12.536 28-28s-12.536-28-28-28z" p-id="2452"></path></svg>