<?xml version="1.0" standalone="no"?><!DOCTYPE svg PUBLIC "-//W3C//DTD SVG 1.1//EN" "http://www.w3.org/Graphics/SVG/1.1/DTD/svg11.dtd"><svg t="1709002530368" class="icon" viewBox="0 0 1024 1024" version="1.1" xmlns="http://www.w3.org/2000/svg" p-id="2964" xmlns:xlink="http://www.w3.org/1999/xlink" width="200" height="200"><path d="M466.45 819.6H239.809c-19.851 0-36-16.149-36-36V557.952c0-15.464-12.536-28-28-28s-28 12.536-28 28V783.6c0 50.729 41.271 92 92 92H466.45c15.464 0 28-12.536 28-28s-12.536-28-28-28zM846.574 528.133c-15.464 0-28 12.536-28 28V783.6c0 19.851-16.149 36-36 36h-225.17c-15.464 0-28 12.536-28 28s12.536 28 28 28h225.17c50.729 0 92-41.271 92-92V556.133c0-15.464-12.536-28-28-28zM175.809 494.997c15.464 0 28-12.536 28-28V240.834c0-19.851 16.149-36 36-36H464.63c15.464 0 28-12.536 28-28s-12.536-28-28-28H239.809c-50.729 0-92 41.271-92 92v226.163c0 15.464 12.536 28 28 28zM782.574 148.834H555.586c-15.464 0-28 12.536-28 28s12.536 28 28 28h226.988c19.851 0 36 16.149 36 36v224.344c0 15.464 12.536 28 28 28s28-12.536 28-28V240.834c0-50.729-41.271-92-92-92z" p-id="2965" fill="#ffffff"></path></svg>